<?xml version="1.0" encoding="UTF-8" standalone="no"?>
<svg
   width="459.59998"
   height="120.9983"
   viewBox="36 30 459.59998 120.9983"
   version="1.1"
   id="svg3"
   xmlns="http://www.w3.org/2000/svg"
   xmlns:svg="http://www.w3.org/2000/svg">
  <defs
     id="defs2">
    <linearGradient
       id="py"
       gradientUnits="userSpaceOnUse"
       x1="44"
       y1="0"
       x2="156"
       y2="0">
      <stop
         offset="0"
         stop-color="#3776AB"
         id="stop1" />
      <stop
         offset="1"
         stop-color="#FFD43B"
         id="stop2" />
    </linearGradient>
    <mask
       id="mw">
      <rect
         x="0"
         y="0"
         width="200"
         height="200"
         fill="#ffffff"
         id="rect2" />
      <path
         d="M 52,150 V 46 l 48,64 48,-64 v 104"
         fill="none"
         stroke="#000000"
         stroke-width="7"
         stroke-linecap="round"
         stroke-linejoin="round"
         id="path2" />
      <circle
         cx="100"
         cy="127"
         r="13.5"
         fill="none"
         stroke="#000000"
         stroke-width="7"
         id="circle2" />
    </mask>
  </defs>
  <path
     d="M 52,150 V 46 l 48,64 48,-64 v 104"
     fill="none"
     stroke="url(#py)"
     stroke-width="17"
     stroke-linecap="round"
     stroke-linejoin="round"
     mask="url(#mw)"
     id="path3"
     style="stroke:url(#py)"
     transform="translate(-7.5,-7.5016989)" />
  <circle
     cx="100"
     cy="127"
     r="13.5"
     fill="none"
     stroke="#ffd43b"
     stroke-width="17"
     mask="url(#mw)"
     id="circle3"
     transform="translate(-7.5,-7.5016989)" />
  <path
     d="M 204.45,142.4983 V 33.148301 h -22.5 V 142.4983 Z m 127.14998,0 V 33.148301 h -33.9 l -19.2,86.999999 -19.8,-86.999999 h -33.6 V 142.4983 h 22.5 V 57.298301 l 19.65,85.199999 h 22.5 l 19.35,-85.199999 V 142.4983 Z m 41.50003,0 V 33.148301 h -22.5 V 142.4983 Z m 122.49998,-5.7 -12,-11.4 c 7.35,-9 12,-23.25 12,-37.949999 0,-32.25 -20.7,-56.1 -52.65,-56.1 -31.95,0 -52.65,23.55 -52.65,56.4 0,32.849999 20.85,56.549999 52.65,56.549999 11.25,0 19.65,-2.25 28.35,-7.5 l 12.9,12.15 z m -22.5,-48.899999 c 0,9 -1.65,16.349999 -4.95,22.949999 l -12.3,-11.699999 -11.4,12.149999 11.55,10.95 c -3.45,1.8 -8.4,2.85 -13.2,2.85 -18,0 -30,-14.4 -30,-37.349999 0,-22.95 12,-37.2 30.15,-37.2 18.3,0 30.15,15 30.15,37.35 z"
     id="text3"
     style="font-weight:600;font-size:150px;font-family:Montserrat, 'Segoe UI', Helvetica, Arial, sans-serif;letter-spacing:1;fill:#15323a"
     aria-label="IMIQ" />
</svg>
